<?xml version="1.0" encoding="UTF-8" standalone="no"?>
<!-- Created with Inkscape (http://www.inkscape.org/) -->

<svg
   xmlns:dc="http://purl.org/dc/elements/1.1/"
   xmlns:cc="http://creativecommons.org/ns#"
   xmlns:rdf="http://www.w3.org/1999/02/22-rdf-syntax-ns#"
   xmlns:svg="http://www.w3.org/2000/svg"
   xmlns="http://www.w3.org/2000/svg"
   xmlns:xlink="http://www.w3.org/1999/xlink"
   xmlns:sodipodi="http://sodipodi.sourceforge.net/DTD/sodipodi-0.dtd"
   xmlns:inkscape="http://www.inkscape.org/namespaces/inkscape"
   width="283.09"
   height="297.35999"
   id="svg2"
   version="1.1"
   inkscape:version="0.48.3.1 r9886"
   sodipodi:docname="penny_body_V3.svg"
   inkscape:export-filename="/home/slacker/Desktop/penny_body_V3.png"
   inkscape:export-xdpi="90"
   inkscape:export-ydpi="90">
  <defs
     id="defs4">
    <linearGradient
       inkscape:collect="always"
       id="linearGradient4805">
      <stop
         style="stop-color:#1bd7f4;stop-opacity:1;"
         offset="0"
         id="stop4807" />
      <stop
         style="stop-color:#1bd7f4;stop-opacity:0;"
         offset="1"
         id="stop4809" />
    </linearGradient>
    <linearGradient
       inkscape:collect="always"
       id="linearGradient4348">
      <stop
         style="stop-color:#ffd100;stop-opacity:1;"
         offset="0"
         id="stop4350" />
      <stop
         style="stop-color:#ffd100;stop-opacity:0;"
         offset="1"
         id="stop4352" />
    </linearGradient>
    <linearGradient
       inkscape:collect="always"
       id="linearGradient4338">
      <stop
         style="stop-color:#ffc900;stop-opacity:1;"
         offset="0"
         id="stop4340" />
      <stop
         style="stop-color:#ffc900;stop-opacity:0;"
         offset="1"
         id="stop4342" />
    </linearGradient>
    <linearGradient
       id="linearGradient4091">
      <stop
         style="stop-color:#f07fff;stop-opacity:1;"
         offset="0"
         id="stop4093" />
      <stop
         id="stop4099"
         offset="1"
         style="stop-color:#8d7fff;stop-opacity:0;" />
    </linearGradient>
    <linearGradient
       inkscape:collect="always"
       id="linearGradient4073">
      <stop
         style="stop-color:#ffcc00;stop-opacity:1;"
         offset="0"
         id="stop4075" />
      <stop
         style="stop-color:#ffcc00;stop-opacity:0;"
         offset="1"
         id="stop4077" />
    </linearGradient>
    <linearGradient
       id="linearGradient4045">
      <stop
         style="stop-color:#5500d4;stop-opacity:1;"
         offset="0"
         id="stop4047" />
      <stop
         style="stop-color:#5500d4;stop-opacity:0;"
         offset="1"
         id="stop4049" />
    </linearGradient>
    <filter
       id="filter4403"
       inkscape:label="Blur content"
       inkscape:menu="Blurs"
       inkscape:menu-tooltip="Blur the contents of objects, preserving the outline"
       color-interpolation-filters="sRGB">
      <feColorMatrix
         id="feColorMatrix4405"
         values="1 0 0 0 0 0 1 0 0 0 0 0 1 0 0 0 0 0 1 0 "
         result="result7" />
      <feGaussianBlur
         id="feGaussianBlur4407"
         result="result6"
         stdDeviation="5" />
      <feComposite
         id="feComposite4409"
         in2="result7"
         operator="atop"
         in="result6"
         result="result91" />
      <feComposite
         id="feComposite4411"
         in2="result91"
         operator="in" />
    </filter>
    <filter
       id="filter4473"
       inkscape:label="Blur content"
       inkscape:menu="Blurs"
       inkscape:menu-tooltip="Blur the contents of objects, preserving the outline"
       color-interpolation-filters="sRGB">
      <feColorMatrix
         id="feColorMatrix4475"
         values="1 0 0 0 0 0 1 0 0 0 0 0 1 0 0 0 0 0 1 0 "
         result="result7" />
      <feGaussianBlur
         id="feGaussianBlur4477"
         result="result6"
         stdDeviation="5" />
      <feComposite
         id="feComposite4479"
         in2="result7"
         operator="atop"
         in="result6"
         result="result91" />
      <feComposite
         id="feComposite4481"
         in2="result91"
         operator="in" />
    </filter>
    <linearGradient
       inkscape:collect="always"
       xlink:href="#linearGradient4805"
       id="linearGradient4811"
       x1="98.092819"
       y1="974.48132"
       x2="97.107414"
       y2="1116.8619"
       gradientUnits="userSpaceOnUse"
       gradientTransform="translate(3.5386646,189.28248)" />
    <linearGradient
       inkscape:collect="always"
       xlink:href="#linearGradient4805"
       id="linearGradient4813"
       x1="184.0013"
       y1="983.18732"
       x2="182.59744"
       y2="1113.8425"
       gradientUnits="userSpaceOnUse"
       gradientTransform="translate(3.5386646,189.28248)" />
    <linearGradient
       inkscape:collect="always"
       xlink:href="#linearGradient4805"
       id="linearGradient4815"
       x1="524.29468"
       y1="1000.1501"
       x2="578.23523"
       y2="1098.979"
       gradientUnits="userSpaceOnUse"
       gradientTransform="translate(3.5386646,189.28248)" />
    <linearGradient
       inkscape:collect="always"
       xlink:href="#linearGradient4805"
       id="linearGradient4817"
       x1="304.21796"
       y1="986.20679"
       x2="319.75394"
       y2="1100.1113"
       gradientUnits="userSpaceOnUse"
       gradientTransform="translate(3.5386646,189.28248)" />
    <linearGradient
       inkscape:collect="always"
       xlink:href="#linearGradient4805"
       id="linearGradient4819"
       x1="402.44128"
       y1="1003.6212"
       x2="417.97726"
       y2="1104.1251"
       gradientUnits="userSpaceOnUse"
       gradientTransform="translate(3.5386646,189.28248)" />
    <linearGradient
       inkscape:collect="always"
       xlink:href="#linearGradient4805"
       id="linearGradient4863"
       gradientUnits="userSpaceOnUse"
       gradientTransform="translate(3.5386646,189.28248)"
       x1="98.092819"
       y1="974.48132"
       x2="97.107414"
       y2="1116.8619" />
    <linearGradient
       inkscape:collect="always"
       xlink:href="#linearGradient4805"
       id="linearGradient4865"
       gradientUnits="userSpaceOnUse"
       gradientTransform="translate(3.5386646,189.28248)"
       x1="184.0013"
       y1="983.18732"
       x2="182.59744"
       y2="1113.8425" />
    <linearGradient
       inkscape:collect="always"
       xlink:href="#linearGradient4805"
       id="linearGradient4867"
       gradientUnits="userSpaceOnUse"
       gradientTransform="translate(3.5386646,189.28248)"
       x1="524.29468"
       y1="1000.1501"
       x2="578.23523"
       y2="1098.979" />
    <linearGradient
       inkscape:collect="always"
       xlink:href="#linearGradient4805"
       id="linearGradient4869"
       gradientUnits="userSpaceOnUse"
       gradientTransform="translate(3.5386646,189.28248)"
       x1="304.21796"
       y1="986.20679"
       x2="319.75394"
       y2="1100.1113" />
    <linearGradient
       inkscape:collect="always"
       xlink:href="#linearGradient4805"
       id="linearGradient4871"
       gradientUnits="userSpaceOnUse"
       gradientTransform="translate(3.5386646,189.28248)"
       x1="402.44128"
       y1="1003.6212"
       x2="417.97726"
       y2="1104.1251" />
    <filter
       inkscape:collect="always"
       id="filter5095"
       x="-0.035646956"
       width="1.071294"
       y="-0.18937786"
       height="1.3787557"
       color-interpolation-filters="sRGB">
      <feGaussianBlur
         inkscape:collect="always"
         stdDeviation="0.94677995"
         id="feGaussianBlur5097" />
    </filter>
    <filter
       inkscape:collect="always"
       id="filter5115"
       x="-0.039689071"
       width="1.0793781"
       y="-0.12288814"
       height="1.2457763"
       color-interpolation-filters="sRGB">
      <feGaussianBlur
         inkscape:collect="always"
         stdDeviation="1.1104224"
         id="feGaussianBlur5117" />
    </filter>
    <linearGradient
       inkscape:collect="always"
       xlink:href="#linearGradient4338"
       id="linearGradient5268"
       gradientUnits="userSpaceOnUse"
       gradientTransform="matrix(0.63146212,0,0,0.61429493,9.1982178,583.62902)"
       x1="564.3205"
       y1="261.95761"
       x2="578.12921"
       y2="331.07611" />
    <linearGradient
       inkscape:collect="always"
       xlink:href="#linearGradient4073"
       id="linearGradient3345"
       gradientUnits="userSpaceOnUse"
       gradientTransform="matrix(-0.325728,0,0,0.26788072,33.269977,759.95764)"
       x1="-232.27486"
       y1="745.80774"
       x2="-228.27283"
       y2="790.02148" />
    <linearGradient
       inkscape:collect="always"
       xlink:href="#linearGradient4348"
       id="linearGradient3361"
       gradientUnits="userSpaceOnUse"
       gradientTransform="matrix(0.35617572,0,0,0.34916758,-5.3959336,682.42239)"
       x1="505.16666"
       y1="769.1637"
       x2="491.5162"
       y2="838.16254" />
    <linearGradient
       inkscape:collect="always"
       xlink:href="#linearGradient4091"
       id="linearGradient4196"
       gradientUnits="userSpaceOnUse"
       gradientTransform="matrix(0.33943098,0,0,0.28705061,268.41677,726.98045)"
       x1="-414.18268"
       y1="665.86462"
       x2="-405.19977"
       y2="418.26752" />
    <linearGradient
       inkscape:collect="always"
       xlink:href="#linearGradient4338"
       id="linearGradient4210"
       gradientUnits="userSpaceOnUse"
       gradientTransform="matrix(0.63146212,0,0,0.61429493,9.1982172,656.00198)"
       x1="564.3205"
       y1="261.95761"
       x2="562.35693"
       y2="406.73691" />
  </defs>
  <sodipodi:namedview
     id="base"
     pagecolor="#ffffff"
     bordercolor="#666666"
     borderopacity="1.0"
     inkscape:pageopacity="0.0"
     inkscape:pageshadow="2"
     inkscape:zoom="0.63960276"
     inkscape:cx="282.80394"
     inkscape:cy="403.76581"
     inkscape:document-units="px"
     inkscape:current-layer="layer2"
     showgrid="false"
     inkscape:window-width="1099"
     inkscape:window-height="815"
     inkscape:window-x="454"
     inkscape:window-y="32"
     inkscape:window-maximized="0"
     showguides="true"
     inkscape:guide-bbox="true" />
  <metadata
     id="metadata7">
    <rdf:RDF>
      <cc:Work
         rdf:about="">
        <dc:format>image/svg+xml</dc:format>
        <dc:type
           rdf:resource="http://purl.org/dc/dcmitype/StillImage" />
        <dc:title></dc:title>
      </cc:Work>
    </rdf:RDF>
  </metadata>
  <g
     inkscape:groupmode="layer"
     id="layer2"
     inkscape:label="Layer"
     transform="translate(0,-754.99414)">
    <rect
       style="fill:#80b3ff;fill-opacity:1;stroke:#050306;stroke-width:2.04976344;stroke-miterlimit:4;stroke-opacity:1;stroke-dasharray:none"
       id="rect4255"
       width="198.2359"
       height="217.51379"
       x="36.842171"
       y="780.31866"
       ry="10.812164" />
    <path
       sodipodi:type="arc"
       style="fill:#9955ff;fill-opacity:1;stroke:#050306;stroke-width:5.0999999;stroke-miterlimit:4;stroke-opacity:1;stroke-dasharray:none"
       id="path4243"
       sodipodi:cx="-902.12244"
       sodipodi:cy="1032.0371"
       sodipodi:rx="134.45845"
       sodipodi:ry="25.015528"
       d="m -1036.5198,1031.283 a 134.45845,25.015528 0 1 1 -0.01,0.042"
       sodipodi:start="3.171744"
       sodipodi:end="9.4532478"
       sodipodi:open="true"
       transform="matrix(0.56404922,0,0,0.56840381,644.98289,383.21377)" />
    <path
       inkscape:export-ydpi="90"
       inkscape:export-xdpi="90"
       inkscape:export-filename="/Users/sgrou/Downloads/penny_flower.png"
       style="fill:#330080;fill-opacity:1;stroke:#050306;stroke-width:2.88773394;stroke-miterlimit:4;stroke-opacity:1;stroke-dasharray:none"
       d="m 73.090437,912.89678 c -15.55033,7.39761 -20.70635,26.22312 -11.88914,34.37178 8.16371,3.83438 26.89663,5.23377 21.74331,-6.85521 -9.36807,-11.64469 8.49586,-25.91131 16.585983,-11.18828 5.09133,0.1737 8.89693,-4.32258 9.93923,-9.40285 -3.59118,-8.50026 -21.798593,-13.57917 -36.379383,-6.92544 z"
       id="path4216"
       inkscape:connector-curvature="0"
       sodipodi:nodetypes="cccccc" />
    <path
       inkscape:export-ydpi="90"
       inkscape:export-xdpi="90"
       inkscape:export-filename="/Users/sgrou/Downloads/penny_flower.png"
       style="fill:#ff8400;fill-opacity:1;stroke:#000000;stroke-width:3.7088728;stroke-linecap:butt;stroke-linejoin:miter;stroke-miterlimit:4;stroke-opacity:1;stroke-dasharray:none"
       d="m 189.0576,973.66338 c -7.47053,2.5165 -16.29952,3.07865 -24.21581,3.05546 -7.12341,0.01 -15.1288,-3.53939 -22.25209,-3.58998 -2.48157,-0.88518 -2.42611,-4.04357 -3.14912,-6.23056 -0.0237,-2.04675 -0.45422,-4.23857 -0.0909,-6.31645 1.04094,-2.82037 4.72816,-0.68804 6.96655,-1.34716 1.7553,-0.50552 4.55656,1.11407 5.49519,-1.1685 2.05929,0.28331 3.87186,0.44606 5.63894,0.0566 2.16124,0.43126 3.03001,0.53833 5.14472,1.29562 2.99867,0.0467 9.1751,-4.29637 12.17097,-4.48485 7.07354,-2.65036 17.44095,5.0507 14.29154,18.72964 z"
       id="path4926"
       inkscape:connector-curvature="0"
       sodipodi:nodetypes="cccccccccccc" />
    <path
       sodipodi:nodetypes="cccccccccccc"
       inkscape:connector-curvature="0"
       id="path4928"
       d="m 185.98564,975.6711 c -7.91147,-0.1496 -20.26796,-8.9186 -28.18426,-8.94184 -7.12341,0.01 -11.16035,8.45784 -18.28365,8.40726 -2.48156,-0.88518 -2.42611,-4.04357 -3.14912,-6.2305 -0.0237,-2.04677 -0.45422,-4.23858 -0.0909,-6.3165 1.04095,-2.82038 4.72816,-0.68804 6.96656,-1.34716 1.75529,-0.50552 4.55655,1.11406 5.49519,-1.16849 2.05929,0.28333 3.87186,0.44605 5.63893,0.0566 2.16123,0.43126 3.03003,0.53834 5.14472,1.29563 2.99867,0.0466 9.17509,-4.29637 12.17097,-4.48484 7.07353,-2.65037 17.44094,5.0507 14.29155,18.72966 z"
       style="fill:url(#linearGradient3361);fill-opacity:1;stroke:none"
       inkscape:export-filename="/Users/sgrou/Downloads/penny_flower.png"
       inkscape:export-xdpi="90"
       inkscape:export-ydpi="90" />
    <path
       inkscape:export-ydpi="90"
       inkscape:export-xdpi="90"
       inkscape:export-filename="/Users/sgrou/Downloads/penny_flower.png"
       inkscape:connector-curvature="0"
       id="path4946"
       d="m 99.14683,956.71682 c -16.183863,-4.25545 -17.980103,12.54058 -13.573743,17.17802 19.479583,3.8361 45.261903,6.23539 60.563473,-0.0904 2.86089,-0.85664 0.0974,-7.88342 0.93085,-10.00022 -9.93547,-6.49822 -35.3703,-6.65059 -47.92058,-7.08743 z"
       style="fill:#ff8400;fill-opacity:1;stroke:#000000;stroke-width:3.55560708;stroke-linecap:butt;stroke-linejoin:miter;stroke-miterlimit:4;stroke-opacity:1;stroke-dasharray:none"
       sodipodi:nodetypes="cccccc" />
    <path
       sodipodi:nodetypes="cccccc"
       style="fill:url(#linearGradient3345);fill-opacity:1;stroke:none"
       d="m 99.30029,958.49418 c -14.800383,-3.26478 -16.443113,9.62108 -12.413393,13.17894 8.3411,-0.11101 24.509333,-0.0262 32.855513,-0.0432 7.51023,0.008 15.02056,0.0113 22.53068,-0.0262 2.61633,-0.65719 0.089,-6.04816 0.85127,-7.67215 -9.08613,-4.98541 -32.34665,-5.10228 -43.82407,-5.43745 z"
       id="path4948"
       inkscape:connector-curvature="0"
       inkscape:export-filename="/Users/sgrou/Downloads/penny_flower.png"
       inkscape:export-xdpi="90"
       inkscape:export-ydpi="90" />
    <path
       sodipodi:nodetypes="cccccc"
       inkscape:connector-curvature="0"
       id="path4178"
       d="m 96.895357,956.47112 c -18.10316,-22.95671 -4.29901,-32.0667 1.890073,-48.10291 -38.830513,-59.906 12.73597,-105.57922 50.64905,-94.72417 32.69442,10.87314 39.13535,55.92169 12.20013,93.35612 19.15356,4.91042 17.25896,50.71259 3.6501,50.62778 -29.47697,6.52289 -37.26649,6.95721 -68.389353,-1.15682 z"
       style="fill:#330080;stroke:#000000;stroke-width:4.46782207;stroke-linecap:butt;stroke-linejoin:miter;stroke-miterlimit:4;stroke-opacity:1;stroke-dasharray:none"
       inkscape:export-filename="/Users/sgrou/Downloads/penny_flower.png"
       inkscape:export-xdpi="90"
       inkscape:export-ydpi="90" />
    <path
       sodipodi:nodetypes="cccc"
       inkscape:connector-curvature="0"
       id="path4182"
       d="m 106.92866,881.55899 c 12.17185,1.70927 22.84314,1.64754 34.94185,-1.37705 26.47935,-18.04128 12.84095,-49.68824 -23.30301,-46.91152 -32.366583,1.458 -41.672823,39.55589 -11.63884,48.28857 z"
       style="fill:#f4d7ee;stroke:#000000;stroke-width:2.32295489;stroke-linecap:butt;stroke-linejoin:miter;stroke-miterlimit:4;stroke-opacity:1;stroke-dasharray:none"
       inkscape:export-filename="/Users/sgrou/Downloads/penny_flower.png"
       inkscape:export-xdpi="90"
       inkscape:export-ydpi="90" />
    <path
       inkscape:export-ydpi="90"
       inkscape:export-xdpi="90"
       inkscape:export-filename="/Users/sgrou/Downloads/penny_flower.png"
       style="fill:url(#linearGradient4196);fill-opacity:1;stroke:none"
       d="m 109.87493,879.55428 c 11.59961,1.40518 21.76921,1.35446 33.29913,-1.13208 25.2345,-14.83172 12.23727,-40.84869 -22.20747,-38.56594 -30.844943,1.19861 -39.713673,32.51889 -11.09166,39.69802 z"
       id="path4184"
       inkscape:connector-curvature="0"
       sodipodi:nodetypes="cccc" />
    <path
       transform="matrix(0.48377163,0,0,0.50839372,104.30528,630.5046)"
       d="m 42.857143,430.93362 a 18.571428,32.857143 0 1 1 -37.1428562,0 18.571428,32.857143 0 1 1 37.1428562,0 z"
       sodipodi:ry="32.857143"
       sodipodi:rx="18.571428"
       sodipodi:cy="430.93362"
       sodipodi:cx="24.285715"
       id="path4188"
       style="fill:#241f1c;fill-opacity:1;stroke:none"
       sodipodi:type="arc"
       inkscape:export-filename="/Users/sgrou/Downloads/penny_flower.png"
       inkscape:export-xdpi="90"
       inkscape:export-ydpi="90" />
    <path
       transform="matrix(0.48377163,0,0,0.52929415,124.09423,621.29596)"
       sodipodi:type="arc"
       style="fill:#241f1c;fill-opacity:1;stroke:none"
       id="path4190"
       sodipodi:cx="24.285715"
       sodipodi:cy="430.93362"
       sodipodi:rx="18.571428"
       sodipodi:ry="32.857143"
       d="m 42.857143,430.93362 a 18.571428,32.857143 0 1 1 -37.1428562,0 18.571428,32.857143 0 1 1 37.1428562,0 z"
       inkscape:export-filename="/Users/sgrou/Downloads/penny_flower.png"
       inkscape:export-xdpi="90"
       inkscape:export-ydpi="90" />
    <path
       transform="matrix(0.2755292,0,0,0.35333874,186.38854,681.46129)"
       d="m -255.17662,456.10788 a 8.8427544,15.159008 0 1 1 -17.68551,0 8.8427544,15.159008 0 1 1 17.68551,0 z"
       sodipodi:ry="15.159008"
       sodipodi:rx="8.8427544"
       sodipodi:cy="456.10788"
       sodipodi:cx="-264.01938"
       id="path4192"
       style="fill:#ffaaee;fill-opacity:1;stroke:none"
       sodipodi:type="arc"
       inkscape:export-filename="/Users/sgrou/Downloads/penny_flower.png"
       inkscape:export-xdpi="90"
       inkscape:export-ydpi="90" />
    <path
       sodipodi:type="arc"
       style="fill:#ffaaee;fill-opacity:1;stroke:none"
       id="path4194"
       sodipodi:cx="-264.01938"
       sodipodi:cy="456.10788"
       sodipodi:rx="8.8427544"
       sodipodi:ry="15.159008"
       d="m -255.17662,456.10788 a 8.8427544,15.159008 0 1 1 -17.68551,0 8.8427544,15.159008 0 1 1 17.68551,0 z"
       transform="matrix(0.2755292,0,0,0.37598956,205.6145,671.27148)"
       inkscape:export-filename="/Users/sgrou/Downloads/penny_flower.png"
       inkscape:export-xdpi="90"
       inkscape:export-ydpi="90" />
    <g
       transform="matrix(-0.56404922,0,0,0.56840381,323.00089,401.06134)"
       id="g4198">
      <path
         sodipodi:nodetypes="ccccc"
         inkscape:connector-curvature="0"
         id="path4200"
         d="m 328.38435,847.18784 c 2.82405,18.41392 29.02842,20.43968 45.01378,20.0802 13.37653,-0.80155 34.53453,-12.79117 35.26086,-23.69081 -19.8404,-18.37346 -49.85146,-22.06014 -60.69816,-20.30711 -10.73799,5.71774 -14.32099,14.39001 -19.57648,23.91772 z"
         style="fill:#ff8400;fill-opacity:1;stroke:#000000;stroke-width:4.5858922;stroke-linecap:butt;stroke-linejoin:miter;stroke-miterlimit:4;stroke-opacity:1;stroke-dasharray:none"
         inkscape:export-filename="/Users/sgrou/Downloads/penny_flower.png"
         inkscape:export-xdpi="90"
         inkscape:export-ydpi="90" />
      <path
         inkscape:export-ydpi="90"
         inkscape:export-xdpi="90"
         inkscape:export-filename="/Users/sgrou/Downloads/penny_flower.png"
         style="fill:url(#linearGradient4210);fill-opacity:1;stroke:none"
         d="m 335.59955,848.43658 c -2.30706,8.9238 18.79381,15.05427 27.47548,15.35884 13.37653,-0.8016 26.14742,-3.30803 40.51568,-15.31755 -8.38313,6.25354 -51.37808,12.52042 -57.9249,-6.66913 8.36464,10.4819 76.02173,9.07791 53.55659,-1.59635 -16.00559,-7.60502 -36.89605,-15.26337 -48.0302,-12.3736 -10.738,5.71774 -15.03215,15.53038 -15.59265,20.59779 z"
         id="path4202"
         inkscape:connector-curvature="0"
         sodipodi:nodetypes="ccccscc" />
      <path
         style="fill:none;stroke:#ecf600;stroke-width:2.42899561;stroke-linecap:butt;stroke-linejoin:miter;stroke-miterlimit:4;stroke-opacity:1;stroke-dasharray:none;filter:url(#filter5115)"
         d="m 334.75792,849.4421 c 0.3675,-5.18274 6.64809,-20.42434 19.11802,-21.6865 11.63092,0.85833 44.07884,10.7832 48.02927,16.4477"
         id="path4204"
         inkscape:connector-curvature="0"
         sodipodi:nodetypes="ccc"
         inkscape:export-filename="/Users/sgrou/Downloads/penny_flower.png"
         inkscape:export-xdpi="90"
         inkscape:export-ydpi="90" />
      <path
         style="fill:none;stroke:#000000;stroke-width:3.29999995;stroke-linecap:butt;stroke-linejoin:miter;stroke-miterlimit:4;stroke-opacity:1;stroke-dasharray:none"
         d="m 346.64193,843.19056 c 11.51531,9.5841 49.7714,8.70608 60.57312,1.48791"
         id="path4206"
         inkscape:connector-curvature="0"
         sodipodi:nodetypes="cc" />
      <path
         style="fill:none;stroke:#e11500;stroke-width:1px;stroke-linecap:butt;stroke-linejoin:miter;stroke-opacity:1;filter:url(#filter5095)"
         d="m 335.6379,850.84665 c -0.32069,4.27852 30.61619,24.5202 63.74131,0.33191"
         id="path4208"
         inkscape:connector-curvature="0"
         sodipodi:nodetypes="cc" />
    </g>
    <path
       sodipodi:nodetypes="ccccc"
       inkscape:connector-curvature="0"
       id="path4214"
       d="m 150.36136,924.78312 c 0.10552,3.02488 -15.29169,6.043 -19.09953,0.93894 11.8728,-11.65095 9.27997,-22.48437 8.0017,-27.27764 1.72952,-1.62989 10.89469,-2.84663 14.84207,1.54696 3.79104,7.08031 0.0398,21.17921 -3.74424,24.79174 z"
       style="fill:#ff00ff;fill-opacity:1;stroke:#000000;stroke-width:0.33532882px;stroke-linecap:butt;stroke-linejoin:miter;stroke-opacity:1" />
    <path
       sodipodi:nodetypes="ccccc"
       inkscape:connector-curvature="0"
       id="path4944"
       d="m 94.153517,949.63885 c 3.34256,-12.36578 14.539723,-34.90536 28.066713,-36.79241 14.14828,2.73775 2.62431,0.23277 10.84175,1.30939 16.42626,9.31453 20.26319,28.59605 21.0043,41.76422 -13.28464,7.84302 -54.03967,3.92744 -59.912763,-6.2812 z"
       style="fill:#dbe2e3;fill-opacity:1;stroke:none"
       inkscape:export-filename="/Users/sgrou/Downloads/penny_flower.png"
       inkscape:export-xdpi="90"
       inkscape:export-ydpi="90" />
    <path
       inkscape:export-ydpi="90"
       inkscape:export-xdpi="90"
       inkscape:export-filename="/Users/sgrou/Downloads/penny_flower.png"
       style="fill:#ff00ff;fill-opacity:1;stroke:#000000;stroke-width:5.25057936;stroke-linecap:butt;stroke-linejoin:miter;stroke-miterlimit:4;stroke-opacity:1;stroke-dasharray:none"
       d="m 90.429807,831.23862 c 14.293903,-21.66664 39.319693,-32.41318 60.526883,-25.7124 18.28805,6.71192 29.23348,23.97201 31.84027,45.33112 -16.92723,-9.88822 -75.21925,-15.02928 -92.367153,-19.61872 z"
       id="path4237"
       inkscape:connector-curvature="0"
       sodipodi:nodetypes="cccc" />
    <path
       sodipodi:type="arc"
       style="fill:#cc00ff;fill-opacity:1;stroke:#050306;stroke-width:9.19999981;stroke-miterlimit:4;stroke-opacity:1;stroke-dasharray:none"
       id="path4166"
       sodipodi:cx="-988.11334"
       sodipodi:cy="786.5722"
       sodipodi:rx="14.071234"
       sodipodi:ry="17.198175"
       d="m -1002.1782,786.05374 a 14.071234,17.198175 0 1 1 -7e-4,0.0289"
       sodipodi:start="3.171744"
       sodipodi:end="9.4532478"
       sodipodi:open="true"
       transform="matrix(0.56404922,0,0,0.56840381,704.95035,353.88725)" />
    <path
       style="fill:#ff00ff;fill-opacity:1;stroke:#000000;stroke-width:1.3023113;stroke-linecap:butt;stroke-linejoin:miter;stroke-miterlimit:4;stroke-opacity:1;stroke-dasharray:none"
       d="m 99.75134,915.99282 c -7.995953,1.04718 -15.973983,-14.55867 -2.481983,-20.22427 30.798003,9.15529 59.434933,3.02593 72.105393,0.17321 4.30846,1.35443 7.52478,10.82278 -4.08922,16.41891 -18.71602,6.25767 -55.98488,6.58112 -65.53419,3.63215 z"
       id="path4180"
       inkscape:connector-curvature="0"
       sodipodi:nodetypes="ccccc" />
    <path
       sodipodi:nodetypes="cccccc"
       inkscape:connector-curvature="0"
       id="path4954"
       d="m 191.46053,883.83447 c 1.23074,-7.13796 7.98341,-9.06644 15.67519,-2.75806 6.37001,3.59323 7.66272,12.69214 4.23518,21.04453 -4.10583,10.59221 -23.36937,23.92685 -42.90809,24.15999 -4.08183,-3.1265 -7.56493,-6.48466 -9.05544,-10.7955 23.27108,-6.89235 33.96849,-16.16594 32.05316,-31.65096 z"
       style="fill:#330080;fill-opacity:1;stroke:#050306;stroke-width:3.50807619;stroke-miterlimit:4;stroke-opacity:1;stroke-dasharray:none"
       inkscape:export-filename="/Users/sgrou/Downloads/penny_flower.png"
       inkscape:export-xdpi="90"
       inkscape:export-ydpi="90"
       inkscape:transform-center-y="6.1372041" />
    <path
       style="fill:#ff00ff;fill-opacity:1;stroke:#000000;stroke-width:1.3023113;stroke-linecap:butt;stroke-linejoin:miter;stroke-miterlimit:4;stroke-opacity:1;stroke-dasharray:none"
       d="m 142.87216,927.26354 c -0.14274,3.53265 20.6867,7.05739 25.83797,1.09655 -16.06161,-13.6067 -12.554,-26.25865 -10.82475,-31.85651 -2.33971,-1.9035 -14.7384,-3.32449 -20.07845,1.80663 -5.12855,8.26883 -0.0538,24.7344 5.06523,28.95333 z"
       id="path4212"
       inkscape:connector-curvature="0"
       sodipodi:nodetypes="ccccc" />
    <path
       style="fill:#330080;stroke:#000000;stroke-width:0.24110423px;stroke-linecap:butt;stroke-linejoin:miter;stroke-opacity:1"
       d="m 107.70348,831.91166 -10.505573,-20.07207 17.001433,19.33588 3.67687,-17.91688 3.49126,16.84199 14.71682,-9.10545 -11.58622,13.86946 z"
       id="path4239"
       inkscape:connector-curvature="0" />
    <path
       inkscape:connector-curvature="0"
       id="path4241"
       d="m 159.14179,840.27451 16.04115,-15.92667 -22.01127,13.24384 1.87658,-18.19799 -8.38572,14.98734 -11.29197,-13.16686 6.87743,16.75265 z"
       style="fill:#330080;stroke:#000000;stroke-width:0.24110423px;stroke-linecap:butt;stroke-linejoin:miter;stroke-opacity:1"
       inkscape:transform-center-y="-10.561425" />
    <text
       xml:space="preserve"
       style="font-size:22.64889336px;font-style:normal;font-variant:normal;font-weight:bold;font-stretch:normal;line-height:125%;letter-spacing:0px;word-spacing:0px;fill:#000000;fill-opacity:1;stroke:none;font-family:Bowlby One SC;-inkscape-font-specification:Bowlby One SC Bold"
       x="42.383244"
       y="1020.107"
       id="text4245"
       sodipodi:linespacing="125%"
       transform="scale(0.99616208,1.0038527)"><tspan
         sodipodi:role="line"
         id="tspan4247"
         x="42.383244"
         y="1020.107"
         style="font-style:normal;font-variant:normal;font-weight:bold;font-stretch:normal;font-family:Bowlby One SC;-inkscape-font-specification:Bowlby One SC Bold">Penny Penguin</tspan></text>
  </g>
</svg>
